<?xml version="1.0" encoding="UTF-8"?>
<svg id="Layer_2" data-name="Layer 2" xmlns="http://www.w3.org/2000/svg" viewBox="0 0 199.48 55.55">
  <defs>
    <style>
      .cls-1 {
      fill: #000;
      stroke-width: 0px;
      }
    </style>
  </defs>
  <g id="Layer_1-2" data-name="Layer 1">
    <g>
      <polygon class="cls-1"
        points="38.9 7.65 55.1 7.65 55.1 54.66 62.37 54.66 62.37 7.65 78.49 7.65 78.49 .97 38.9 .97 38.9 7.65" />
      <path class="cls-1"
        d="M102.3,17.3c-2.82,0-5.3.61-7.43,1.82-2.13,1.21-3.76,2.81-4.9,4.79V0h-6.98v54.59h6.98v-19.76c0-2.08.4-3.96,1.19-5.64.79-1.68,1.97-3.02,3.53-4.01,1.56-.99,3.45-1.49,5.68-1.49,1.73,0,3.25.35,4.57,1.04,1.31.69,2.33,1.8,3.04,3.31.72,1.51,1.08,3.5,1.08,5.98v20.65h6.98v-22.21c0-4.65-1.14-8.34-3.42-11.07-2.28-2.72-5.72-4.08-10.32-4.08Z" />
      <path class="cls-1"
        d="M150.76,19.83c-2.82-1.63-6.07-2.45-9.73-2.45s-6.92.82-9.77,2.45c-2.85,1.63-5.09,3.89-6.72,6.76-1.63,2.87-2.45,6.16-2.45,9.88s.82,7.01,2.45,9.88c1.63,2.87,3.87,5.12,6.72,6.76,2.85,1.63,6.1,2.45,9.77,2.45s6.91-.82,9.73-2.45,5.05-3.89,6.68-6.76c1.63-2.87,2.45-6.16,2.45-9.88s-.82-7.01-2.45-9.88c-1.63-2.87-3.86-5.12-6.68-6.76ZM151.39,43.15c-1.02,1.93-2.41,3.44-4.2,4.53-1.78,1.09-3.84,1.63-6.16,1.63s-4.38-.54-6.16-1.63c-1.78-1.09-3.18-2.6-4.2-4.53-1.02-1.93-1.52-4.16-1.52-6.68s.51-4.81,1.52-6.72c1.01-1.91,2.41-3.4,4.2-4.49,1.78-1.09,3.84-1.63,6.16-1.63s4.38.55,6.16,1.63c1.78,1.09,3.18,2.59,4.2,4.49,1.01,1.91,1.52,4.15,1.52,6.72s-.51,4.75-1.52,6.68Z" />
      <path class="cls-1"
        d="M196.06,21.39c-2.28-2.72-5.79-4.08-10.55-4.08-2.58,0-4.94.58-7.09,1.75-2.15,1.16-3.8,2.79-4.94,4.86l-.74-5.57h-6.31v36.32h6.98v-19.24c0-3.56.9-6.41,2.71-8.54,1.81-2.13,4.34-3.19,7.61-3.19,2.67,0,4.8.81,6.39,2.41,1.58,1.61,2.38,4.25,2.38,7.91v20.65h6.98v-22.21c0-4.65-1.14-8.34-3.42-11.07Z" />
      <path class="cls-1"
        d="M0,24.29h24.29V0H0v24.29ZM7.62,5.77h2.09l5.65,8.55V5.77h2.07v12.04h-2.07l-5.66-8.53v8.53h-2.07V5.77Z" />
      <path class="cls-1"
        d="M0,54.66h24.29v-24.29H0v24.29ZM14.4,44.71c-.22-.25-.58-.42-1.07-.52l-1.91-.43c-1.02-.22-1.79-.62-2.32-1.19-.53-.58-.79-1.33-.79-2.26,0-.7.18-1.32.54-1.86s.86-.96,1.51-1.26c.64-.3,1.39-.45,2.23-.45s1.52.14,2.12.43c.6.29,1.06.69,1.4,1.22.33.53.51,1.15.54,1.88h-2.11c-.02-.52-.21-.92-.56-1.21-.35-.29-.82-.44-1.42-.44-.65,0-1.17.15-1.56.44-.39.29-.58.69-.58,1.19,0,.43.12.77.35,1.01.24.25.61.43,1.11.55l1.89.43c1.03.22,1.8.6,2.31,1.13.5.53.76,1.25.76,2.15,0,.74-.18,1.38-.54,1.94s-.88.99-1.54,1.29c-.66.3-1.44.45-2.33.45s-1.59-.15-2.22-.44c-.64-.29-1.13-.7-1.49-1.23-.36-.53-.55-1.15-.57-1.86h2.11c.01.51.21.9.6,1.19.39.29.92.44,1.59.44s1.26-.15,1.67-.44c.41-.29.62-.68.62-1.16,0-.42-.11-.75-.33-1Z" />
    </g>
  </g>
</svg>